<svg width="985" height="985" viewBox="0 0 985 985" fill="none" xmlns="http://www.w3.org/2000/svg">
<path d="M866.397 706.215L486.925 925.303L107.454 706.215V268.039L486.925 48.9514L866.397 268.039V706.215Z" stroke="black" stroke-width="24"/>
<path d="M353.927 777.717V616.336L493.684 535.645V697.026L353.927 777.717Z" fill="black" stroke="white" stroke-width="12"/>
<path d="M633.44 777.717V616.336L493.683 535.645V697.026L633.44 777.717Z" fill="black" stroke="white" stroke-width="12"/>
<path d="M493.684 858.402L353.927 777.711L493.684 697.026L633.442 777.711L493.684 858.402Z" fill="black" stroke="white" stroke-width="12"/>
<path d="M349.658 565.145V403.764L489.416 323.073V484.455L349.658 565.145Z" fill="black" stroke="white" stroke-width="5.08936"/>
<path d="M629.174 565.145V403.764L489.417 323.073V484.455L629.174 565.145Z" fill="black" stroke="white" stroke-width="5.08936"/>
<path d="M489.416 645.83L349.658 565.139L489.416 484.455L629.173 565.139L489.416 645.83Z" fill="black" stroke="white" stroke-width="5.08936"/>
<path d="M524.966 455.292V293.911L664.723 213.22V374.602L524.966 455.292Z" fill="black" stroke="white" stroke-width="12"/>
<path d="M804.482 455.292V293.911L664.725 213.22V374.602L804.482 455.292Z" fill="black" stroke="white" stroke-width="12"/>
<path d="M664.723 535.978L524.966 455.287L664.723 374.602L804.481 455.287L664.723 535.978Z" fill="black" stroke="white" stroke-width="12"/>
<path d="M171.508 460.275V298.894L311.265 218.203V379.584L171.508 460.275Z" fill="black" stroke="white" stroke-width="12"/>
<path d="M451.024 460.275V298.894L311.267 218.203V379.584L451.024 460.275Z" fill="black" stroke="white" stroke-width="12"/>
<path d="M311.265 540.96L171.508 460.269L311.265 379.584L451.023 460.269L311.265 540.96Z" fill="black" stroke="white" stroke-width="12"/>
<path d="M345.393 352.573V191.191L485.15 110.5V271.882L345.393 352.573Z" fill="black" stroke="white" stroke-width="12"/>
<path d="M624.907 352.573V191.191L485.149 110.5V271.882L624.907 352.573Z" fill="black" stroke="white" stroke-width="12"/>
<path d="M485.15 433.257L345.393 352.567L485.15 271.882L624.908 352.567L485.15 433.257Z" fill="black" stroke="white" stroke-width="12"/>
<path d="M529.231 667.865V506.483L668.989 425.793V587.174L529.231 667.865Z" fill="black" stroke="white" stroke-width="12"/>
<path d="M808.748 667.865V506.483L668.99 425.793V587.174L808.748 667.865Z" fill="black" stroke="white" stroke-width="12"/>
<path d="M668.989 748.55L529.231 667.859L668.989 587.174L808.746 667.859L668.989 748.55Z" fill="black" stroke="white" stroke-width="12"/>
<path d="M175.774 672.847V511.466L315.532 430.775V592.157L175.774 672.847Z" fill="black" stroke="white" stroke-width="12"/>
<path d="M455.291 672.847V511.466L315.533 430.775V592.157L455.291 672.847Z" fill="black" stroke="white" stroke-width="12"/>
<path d="M315.532 753.532L175.774 672.841L315.532 592.157L455.289 672.841L315.532 753.532Z" fill="black" stroke="white" stroke-width="12"/>
<path d="M349.658 565.145V403.764L489.416 323.073V484.455L349.658 565.145Z" fill="black" stroke="white" stroke-width="12"/>
<path d="M629.174 565.145V403.764L489.417 323.073V484.455L629.174 565.145Z" fill="black" stroke="white" stroke-width="12"/>
<path d="M489.416 645.83L349.658 565.139L489.416 484.455L629.173 565.139L489.416 645.83Z" fill="black" stroke="white" stroke-width="12"/>
</svg>
