<svg width="1031" height="1031" viewBox="0 0 1031 1031" fill="none" xmlns="http://www.w3.org/2000/svg">
<g clip-path="url(#clip0_29_128)">
<path d="M966.029 80.861C924.505 80.861 884.457 65.5188 853.569 37.7966C841.032 26.5462 826.239 18.1009 809.987 13.6728L773.373 3.6971C764.365 1.24244 755.072 0 745.739 0H578.153C559.341 0 544.094 15.2475 544.094 34.0572V48.2315C544.094 67.0412 559.343 82.2907 578.151 82.2907H566.532C547.722 82.2907 532.475 97.5382 532.475 116.348V130.522C532.475 149.332 547.722 164.581 566.532 164.581H554.533C535.723 164.581 520.473 179.829 520.473 198.641V212.815C520.473 231.627 535.723 246.874 554.533 246.874H365.193C342.469 246.874 324.048 265.295 324.048 288.02C324.048 310.744 342.469 329.165 365.193 329.165H698.788C708.446 329.165 716.513 336.523 717.397 346.14L727.733 458.42C730.054 483.65 751.218 502.953 776.554 502.953C801.798 502.953 822.915 483.785 825.353 458.658L830.498 405.606C834.705 362.245 871.148 329.165 914.712 329.165H1010.25C1021.71 329.165 1031 319.878 1031 308.42V101.606C1031 90.1481 1021.71 80.861 1010.25 80.861H966.029Z" fill="#FFCEC0"/>
<path d="M914.706 329.173C871.142 329.173 834.695 362.239 830.504 405.596L825.359 458.66C824.135 471.231 818.243 482.288 809.51 490.232C800.756 498.156 789.16 502.949 776.548 502.949C765.533 502.949 755.286 499.278 747.05 493.074C748.232 492.182 749.394 491.227 750.493 490.232C759.247 482.286 765.139 471.229 766.341 458.66L771.486 405.596C775.696 362.239 812.146 329.173 855.708 329.173H914.706Z" fill="#FDB0A0"/>
<path d="M1031 101.606V308.428C1031 319.886 1021.71 329.173 1010.25 329.173H972.003V80.861H1010.25C1021.71 80.861 1031 90.15 1031 101.606Z" fill="#FDB0A0"/>
<path d="M64.9711 950.139C106.495 950.139 146.543 965.481 177.431 993.203C189.968 1004.45 204.76 1012.9 221.013 1017.33L257.627 1027.3C266.634 1029.76 275.927 1031 285.261 1031H452.847C471.656 1031 486.904 1015.75 486.904 996.943V982.768C486.904 963.959 471.654 948.709 452.847 948.709H464.466C483.275 948.709 498.523 933.462 498.523 914.652V900.478C498.523 881.668 483.275 866.419 464.466 866.419H476.465C495.275 866.419 510.524 851.171 510.524 832.359V818.185C510.524 799.373 495.275 784.126 476.465 784.126H665.804C688.529 784.126 706.95 765.705 706.95 742.98C706.95 720.256 688.529 701.835 665.804 701.835H332.214C322.556 701.835 314.489 694.477 313.605 684.86L303.269 572.58C300.947 547.35 279.784 528.047 254.448 528.047C229.204 528.047 208.087 547.215 205.648 572.342L200.503 625.394C196.297 668.754 159.853 701.835 116.29 701.835H20.7448C9.28705 701.835 0 711.122 0 722.58V929.394C0 940.852 9.28705 950.139 20.7448 950.139H64.9711Z" fill="#FFCEC0"/>
<path d="M332.223 701.827H269.886C260.24 701.827 252.17 694.483 251.278 684.858L240.947 572.587C239.703 559.082 233.064 547.28 223.273 539.231C231.779 532.219 242.669 528.049 254.453 528.049C279.783 528.049 300.943 547.342 303.265 572.587L313.595 684.858C314.485 694.483 322.556 701.827 332.223 701.827Z" fill="#FDB0A0"/>
<path d="M476.458 784.12H445.015C441.132 784.12 437.985 787.267 437.985 791.149C437.985 792.807 438.543 794.438 439.644 795.676C444.964 801.663 448.204 809.53 448.204 818.181V832.349C448.204 845.917 440.252 857.57 428.766 863.027C425.814 864.431 423.95 867.421 423.95 870.689C423.95 872.949 424.87 875.093 426.453 876.706C432.468 882.834 436.193 891.205 436.193 900.476V914.644C436.193 927.682 428.857 938.965 418.094 944.678C414.939 946.353 412.923 949.585 412.923 953.157C412.923 955.624 413.918 957.956 415.587 959.768C421.161 965.821 424.574 973.886 424.574 982.77V996.939C424.574 1015.75 409.326 1031 390.513 1031H452.85C471.662 1031 486.911 1015.75 486.911 996.939V982.77C486.911 963.955 471.664 948.709 452.85 948.709H464.467C483.279 948.709 498.53 933.46 498.53 914.646V900.478C498.53 881.662 483.283 866.414 464.467 866.414H476.456C495.268 866.414 510.519 851.165 510.519 832.351V818.183C510.521 799.369 495.27 784.12 476.458 784.12Z" fill="#FDB0A0"/>
<path d="M706.949 742.985C706.949 765.699 688.528 784.122 665.812 784.122H603.477C626.213 784.122 644.634 765.701 644.634 742.985C644.634 731.617 640.029 721.327 632.582 713.881C625.136 706.434 614.846 701.829 603.479 701.829H665.816C677.183 701.829 687.453 706.434 694.899 713.881C702.344 721.327 706.949 731.615 706.949 742.985Z" fill="#FDB0A0"/>
<path d="M515.5 649.355C589.426 649.355 649.355 589.426 649.355 515.5C649.355 441.574 589.426 381.645 515.5 381.645C441.574 381.645 381.646 441.574 381.646 515.5C381.646 589.426 441.574 649.355 515.5 649.355Z" fill="#2E8555"/>
<path d="M649.341 515.502C649.341 589.418 589.416 649.343 515.501 649.343C500.914 649.343 486.866 647.017 473.711 642.661C535.426 633.177 582.675 579.843 582.675 515.502C582.675 451.103 535.396 397.769 473.65 388.312C486.806 383.987 500.883 381.631 515.501 381.631C589.416 381.631 649.341 441.586 649.341 515.502Z" fill="#38B856"/>
<path d="M515.5 454.534C506.906 454.534 499.942 447.569 499.942 438.976V332.214C499.942 323.619 506.908 316.656 515.5 316.656C524.092 316.656 531.058 323.621 531.058 332.214V438.976C531.058 447.571 524.094 454.534 515.5 454.534Z" fill="#2496ED"/>
<path d="M515.5 714.344C506.906 714.344 499.942 707.379 499.942 698.787V592.024C499.942 583.429 506.908 576.466 515.5 576.466C524.092 576.466 531.058 583.431 531.058 592.024V698.787C531.058 707.381 524.094 714.344 515.5 714.344Z" fill="#2496ED"/>
<path d="M698.786 531.058H592.023C583.429 531.058 576.466 524.092 576.466 515.5C576.466 506.908 583.431 499.942 592.023 499.942H698.786C707.381 499.942 714.344 506.908 714.344 515.5C714.344 524.092 707.381 531.058 698.786 531.058Z" fill="#2496ED"/>
<path d="M438.977 531.058H332.214C323.62 531.058 316.656 524.092 316.656 515.5C316.656 506.908 323.622 499.942 332.214 499.942H438.977C447.571 499.942 454.534 506.908 454.534 515.5C454.534 524.092 447.571 531.058 438.977 531.058Z" fill="#2496ED"/>
<path d="M515.5 591.478C557.462 591.478 591.478 557.461 591.478 515.5C591.478 473.539 557.462 439.522 515.5 439.522C473.539 439.522 439.522 473.539 439.522 515.5C439.522 557.461 473.539 591.478 515.5 591.478Z" fill="#E55B77"/>
<path d="M591.488 515.5C591.488 557.467 557.467 591.486 515.5 591.486C505.48 591.486 495.917 589.557 487.164 586.031C520.355 579.704 545.436 550.516 545.436 515.5C545.436 480.484 520.355 451.296 487.164 444.969C495.917 441.443 505.48 439.514 515.5 439.514C557.467 439.514 591.488 473.533 591.488 515.5Z" fill="#FF6584"/>
<path d="M504.894 548.534C500.913 548.534 496.93 547.014 493.892 543.978L480.148 530.234C474.073 524.157 474.073 514.308 480.148 508.229C486.225 502.156 496.074 502.156 502.154 508.229L504.894 510.971L528.845 487.019C534.922 480.946 544.771 480.946 550.85 487.019C556.925 493.096 556.925 502.945 550.85 509.024L515.897 543.978C512.858 547.016 508.875 548.534 504.894 548.534Z" fill="#EEF4F5"/>
<path d="M825.535 575.801C816.941 575.801 809.978 568.836 809.978 560.244V549.871C809.978 541.277 816.943 534.314 825.535 534.314C834.127 534.314 841.093 541.279 841.093 549.871V560.244C841.093 568.836 834.127 575.801 825.535 575.801Z" fill="black"/>
<path d="M825.535 730.351C816.941 730.351 809.978 723.386 809.978 714.793V696.394C809.978 687.8 816.943 680.837 825.535 680.837C834.127 680.837 841.093 687.802 841.093 696.394V714.793C841.093 723.386 834.127 730.351 825.535 730.351ZM825.535 653.076C816.941 653.076 809.978 646.111 809.978 637.519V619.12C809.978 610.525 816.943 603.562 825.535 603.562C834.127 603.562 841.093 610.527 841.093 619.12V637.519C841.093 646.111 834.127 653.076 825.535 653.076Z" fill="black"/>
<path d="M825.535 799.603H815.162C806.568 799.603 799.604 792.638 799.604 784.045C799.604 777.024 804.254 771.089 810.643 769.154C812.581 762.765 818.513 758.115 825.535 758.115C834.129 758.115 841.092 765.08 841.092 773.673V784.045C841.092 792.638 834.127 799.603 825.535 799.603Z" fill="black"/>
<path d="M759.337 799.603H748.965C740.371 799.603 733.407 792.638 733.407 784.045C733.407 775.453 740.373 768.488 748.965 768.488H759.337C767.932 768.488 774.895 775.453 774.895 784.045C774.895 792.638 767.93 799.603 759.337 799.603Z" fill="black"/>
<path d="M205.465 496.688C196.871 496.688 189.907 489.723 189.907 481.131V470.758C189.907 462.164 196.873 455.201 205.465 455.201C214.059 455.201 221.022 462.166 221.022 470.758V481.131C221.025 489.723 214.059 496.688 205.465 496.688Z" fill="black"/>
<path d="M205.465 427.44C196.871 427.44 189.907 420.475 189.907 411.883V393.484C189.907 384.889 196.873 377.926 205.465 377.926C214.059 377.926 221.022 384.891 221.022 393.484V411.883C221.025 420.475 214.059 427.44 205.465 427.44ZM205.465 350.164C196.871 350.164 189.907 343.198 189.907 334.606V316.207C189.907 307.613 196.873 300.649 205.465 300.649C214.059 300.649 221.022 307.615 221.022 316.207V334.606C221.025 343.2 214.059 350.164 205.465 350.164Z" fill="black"/>
<path d="M205.465 272.887C196.871 272.887 189.907 265.922 189.907 257.329V246.957C189.907 238.362 196.873 231.399 205.465 231.399H215.837C224.432 231.399 231.395 238.364 231.395 246.957C231.395 253.978 226.745 259.913 220.356 261.848C218.421 268.237 212.487 272.887 205.465 272.887Z" fill="black"/>
<path d="M282.035 262.514H271.662C263.068 262.514 256.104 255.549 256.104 246.957C256.104 238.364 263.07 231.399 271.662 231.399H282.035C290.629 231.399 297.592 238.364 297.592 246.957C297.592 255.549 290.629 262.514 282.035 262.514Z" fill="black"/>
</g>
<defs>
<clipPath id="clip0_29_128">
<rect width="1031" height="1031" fill="white"/>
</clipPath>
</defs>
</svg>
