<svg width="1031" height="1031" viewBox="0 0 1031 1031" fill="none" xmlns="http://www.w3.org/2000/svg">
<g clip-path="url(#clip0_29_172)">
<path d="M782.382 514.167L453.532 691.99L124.659 514.167C125.927 512.59 127.663 511.412 129.655 510.802L450.026 415.535C452.321 414.851 454.76 414.851 457.035 415.535L777.427 510.822C779.239 511.346 780.812 512.393 782.02 513.724C782.141 513.867 782.282 514.006 782.382 514.167Z" fill="#3F3D56"/>
<path d="M583.331 537.743H323.728C315.071 537.743 308.056 530.728 308.056 522.071C308.056 513.414 315.073 506.398 323.728 506.398H583.333C591.989 506.398 599.005 513.414 599.005 522.071C599.005 530.728 591.987 537.743 583.331 537.743Z" fill="#181B21"/>
<path d="M784.617 520.474V923.782C784.617 929.221 781.051 934.016 775.834 935.586L726.156 950.352V950.373L456.391 1030.59C455.418 1030.84 454.446 1031.03 453.449 1030.99L413.238 825.168L453.527 611.427L782.016 513.722C783.661 515.564 784.627 517.999 784.617 520.474Z" fill="#E55B77"/>
<path d="M453.529 611.429V1031C452.547 1031.01 451.602 1030.86 450.648 1030.59L392.308 1013.23L131.245 935.586C126.008 934.016 122.441 929.221 122.441 923.782V520.474C122.449 517.912 123.398 515.528 125.041 513.726L392.308 593.22L453.529 611.429Z" fill="#2E8555"/>
<path d="M453.529 611.429V1031C452.547 1031.01 451.602 1030.86 450.648 1030.59L392.308 1013.23V593.218L453.529 611.429Z" fill="#3ECC5F"/>
<path d="M784.617 520.474V923.782C784.617 929.221 781.051 934.015 775.834 935.586L726.156 950.372V530.345L782.02 513.726C783.651 515.538 784.617 517.914 784.617 520.474Z" fill="#CA2B2B"/>
<path d="M677.413 370.776C676.439 370.065 667.167 363.571 647.597 363.571C642.423 363.571 637.299 363.998 632.176 364.803C628.385 340.816 606.971 329.107 605.998 328.586L600.772 325.789L597.34 330.387C593.036 336.597 589.86 343.424 588.016 350.582C584.533 364.282 586.633 377.129 594.164 388.127C585.096 392.82 570.495 393.958 567.575 394.052H326.437C320.136 394.052 315.013 398.793 315.013 404.576C314.757 424.107 318.292 443.544 325.566 461.889C333.866 482.036 346.212 496.874 362.298 505.976C380.331 516.168 409.584 521.999 442.781 521.999C457.791 522.046 472.75 520.766 487.453 518.253C507.945 514.793 527.669 508.156 545.753 498.628C560.661 490.616 574.134 480.424 585.559 468.478C604.668 448.473 616.041 426.193 624.494 406.378C625.621 406.378 626.748 406.378 627.875 406.378C648.777 406.378 661.636 398.65 668.756 392.156C673.469 388.032 677.158 382.959 679.515 377.365L681 373.289L677.413 370.776Z" fill="#2496ED"/>
<path d="M348.773 387.511H381.099C382.636 387.511 383.917 386.326 383.917 384.904V358.262C383.917 356.84 382.687 355.655 381.099 355.655H348.773C347.236 355.655 345.955 356.84 345.955 358.262V384.904C345.955 386.326 347.236 387.511 348.773 387.511Z" fill="#2496ED"/>
<path d="M393.292 387.511H425.617C427.154 387.511 428.435 386.326 428.435 384.904V358.262C428.435 356.84 427.206 355.655 425.617 355.655H393.292C391.703 355.655 390.474 356.84 390.474 358.262V384.904C390.474 386.326 391.755 387.511 393.292 387.511Z" fill="#2496ED"/>
<path d="M438.528 387.511H470.854C472.391 387.511 473.672 386.326 473.672 384.904V358.262C473.672 356.84 472.442 355.655 470.854 355.655H438.528C436.991 355.655 435.71 356.84 435.71 358.262V384.904C435.71 386.326 436.939 387.511 438.528 387.511Z" fill="#2496ED"/>
<path d="M483.201 387.511H515.527C517.064 387.511 518.345 386.326 518.345 384.904V358.262C518.345 356.792 517.064 355.655 515.527 355.655H483.201C481.664 355.655 480.383 356.84 480.383 358.262V384.904C480.383 386.326 481.612 387.511 483.201 387.511Z" fill="#2496ED"/>
<path d="M393.292 349.207H425.617C427.154 349.207 428.435 348.022 428.435 346.599V319.958C428.435 318.536 427.154 317.35 425.617 317.35H393.292C391.755 317.35 390.474 318.536 390.474 319.958V346.599C390.474 348.022 391.755 349.207 393.292 349.207Z" fill="#2496ED"/>
<path d="M438.528 349.207H470.854C472.391 349.207 473.672 348.022 473.672 346.599V319.958C473.672 318.536 472.391 317.35 470.854 317.35H438.528C436.991 317.35 435.71 318.536 435.71 319.958V346.599C435.71 348.022 436.939 349.207 438.528 349.207Z" fill="#2496ED"/>
<path d="M483.201 349.207H515.527C517.115 349.207 518.345 348.022 518.345 346.599V319.958C518.345 318.536 517.064 317.35 515.527 317.35H483.201C481.664 317.35 480.383 318.536 480.383 319.958V346.599C480.383 348.022 481.612 349.207 483.201 349.207Z" fill="#2496ED"/>
<path d="M483.201 310.857H515.527C517.064 310.857 518.345 309.671 518.345 308.249V281.608C518.345 280.185 517.064 279 515.527 279H483.201C481.664 279 480.383 280.185 480.383 281.608V308.249C480.383 309.719 481.612 310.857 483.201 310.857Z" fill="#2496ED"/>
<path d="M528.231 387.511H560.557C562.094 387.511 563.375 386.326 563.375 384.904V358.262C563.375 356.792 562.094 355.655 560.557 355.655H528.231C526.695 355.655 525.414 356.84 525.414 358.262V384.904C525.414 386.326 526.695 387.511 528.231 387.511Z" fill="#2496ED"/>
<path d="M435.134 197.721C404.236 184.387 373.334 171.064 342.414 157.78L238.533 283.788C223.368 302.184 227.347 329.643 247.111 342.977C263.303 353.902 284.992 351.676 298.629 337.694L435.134 197.721Z" fill="#FDB0A0"/>
<path d="M195.941 299.051L327.346 226.464C333.483 251.917 357.47 269.754 384.353 267.394L500.03 257.29C522.799 255.29 545.738 257.004 567.977 262.332L668.438 286.476C685.818 290.656 704.033 289.41 720.696 282.954L782.46 258.955C804.797 250.288 822.604 232.84 831.777 210.709C837.699 196.368 845.435 182.931 854.761 170.667C864.084 158.428 874.974 147.361 887.217 137.835L896.202 130.835C906.546 122.778 907.001 107.295 897.148 98.6445L790.716 5.194C782.711 -1.83371 770.702 -1.71692 762.836 5.46585L710.316 53.4275L434.153 58.9852C418.295 59.3114 402.854 64.1624 389.661 72.95L153.993 230.081C134.144 243.295 130.03 270.737 145.098 289.214C157.438 304.363 178.835 308.491 195.941 299.051Z" fill="#FFCEC0"/>
<path d="M720.698 282.954L782.484 258.957C804.801 250.266 822.626 232.842 831.781 210.687C837.701 196.368 845.439 182.909 854.763 170.667C864.086 158.428 874.974 147.383 887.241 137.837L896.216 130.841C906.556 122.78 907.005 107.301 897.152 98.6546L873.101 77.5472L814.407 123.439C802.184 132.99 791.253 144.006 781.95 156.27C772.627 168.509 764.888 181.97 758.966 196.312C749.812 218.466 732.007 235.892 709.649 244.557L647.886 268.556C638.456 272.219 628.496 274.21 618.484 274.462L668.438 286.476C685.82 290.636 704.055 289.412 720.698 282.954Z" fill="#FDB0A0"/>
<path d="M572.663 147.947C548.904 155.889 524.182 161.05 499.21 163.223L359.846 175.428C338.886 177.246 323.338 195.802 325.179 216.762C325.471 220.17 326.202 223.428 327.331 226.48L299.684 241.736C296.611 234.861 294.627 227.378 293.937 219.481C290.594 181.302 318.95 147.532 357.13 144.188L496.472 132.005C518.999 130.042 541.276 125.402 562.695 118.213C570.907 115.475 579.789 119.907 582.548 128.098C585.285 136.308 580.855 145.188 572.663 147.947Z" fill="#FDB0A0"/>
<path d="M684.417 651.048C698.37 647.309 712.397 650.714 723.192 662.146C744.767 685.037 745.248 731.39 724.268 765.663L642.212 899.695C640.851 901.92 639.049 903.331 637.235 903.817C635.422 904.302 633.6 903.861 632.201 902.377L547.842 812.936C526.251 790.07 525.77 743.718 546.766 709.419C557.258 692.282 571.134 681.402 585.085 677.663C599.037 673.924 613.065 677.329 623.86 688.76L635.124 700.722L646.095 682.802C656.59 665.668 670.466 654.788 684.417 651.048Z" fill="#2E8555"/>
<path d="M724.259 765.668L642.216 899.703C640.859 901.918 639.041 903.339 637.243 903.818C635.424 904.3 633.606 903.861 632.206 902.377L607.317 875.983L679.977 757.31C700.957 723.037 700.476 676.688 678.912 653.785L678.285 653.159C680.313 652.303 682.361 651.592 684.409 651.048C698.368 647.307 712.391 650.714 723.194 662.146C744.761 685.047 745.24 731.396 724.259 765.668Z" fill="#3ECC5F"/>
<path d="M376 446C376 452.627 368.389 458 359 458C349.611 458 342 452.627 342 446C342 439.373 349.611 434 359 434C368.389 434 376 439.373 376 446Z" fill="white"/>
<path d="M376 446C376 452.627 368.389 458 359 458C349.611 458 342 452.627 342 446C342 439.373 349.611 434 359 434C368.389 434 376 439.373 376 446Z" fill="white"/>
<path d="M376 446C376 452.627 368.389 458 359 458C349.611 458 342 452.627 342 446C342 439.373 349.611 434 359 434C368.389 434 376 439.373 376 446Z" fill="white"/>
<path d="M376 446C376 452.627 368.389 458 359 458C349.611 458 342 452.627 342 446C342 439.373 349.611 434 359 434C368.389 434 376 439.373 376 446Z" fill="white"/>
<path d="M376 446C376 452.627 368.389 458 359 458C349.611 458 342 452.627 342 446C342 439.373 349.611 434 359 434C368.389 434 376 439.373 376 446Z" fill="white"/>
<path d="M424 446C424 452.627 416.389 458 407 458C397.611 458 390 452.627 390 446C390 439.373 397.611 434 407 434C416.389 434 424 439.373 424 446Z" fill="white"/>
<path d="M424 446C424 452.627 416.389 458 407 458C397.611 458 390 452.627 390 446C390 439.373 397.611 434 407 434C416.389 434 424 439.373 424 446Z" fill="white"/>
<path d="M424 446C424 452.627 416.389 458 407 458C397.611 458 390 452.627 390 446C390 439.373 397.611 434 407 434C416.389 434 424 439.373 424 446Z" fill="white"/>
<path d="M424 446C424 452.627 416.389 458 407 458C397.611 458 390 452.627 390 446C390 439.373 397.611 434 407 434C416.389 434 424 439.373 424 446Z" fill="white"/>
<path d="M424 446C424 452.627 416.389 458 407 458C397.611 458 390 452.627 390 446C390 439.373 397.611 434 407 434C416.389 434 424 439.373 424 446Z" fill="white"/>
<path d="M363 446C363 449.866 359.194 453 354.5 453C349.806 453 346 449.866 346 446C346 442.134 349.806 439 354.5 439C359.194 439 363 442.134 363 446Z" fill="#181B21"/>
<path d="M411 446C411 449.866 407.194 453 402.5 453C397.806 453 394 449.866 394 446C394 442.134 397.806 439 402.5 439C407.194 439 411 442.134 411 446Z" fill="#181B21"/>
</g>
<defs>
<clipPath id="clip0_29_172">
<rect width="1031" height="1031" fill="white"/>
</clipPath>
</defs>
</svg>
