<svg width="1031" height="1031" viewBox="0 0 1031 1031" fill="none" xmlns="http://www.w3.org/2000/svg">
<g clip-path="url(#clip0_29_220)">
<path d="M175.794 313.976C192.475 313.976 205.999 300.452 205.999 283.771V249.268H242.648V283.771C242.648 300.452 256.172 313.976 272.853 313.976C289.534 313.976 303.058 300.452 303.058 283.771V138.182C303.058 94.7674 267.738 59.4476 224.323 59.4476C180.909 59.4476 145.589 94.7674 145.589 138.182V283.771C145.589 300.452 159.113 313.976 175.794 313.976ZM224.323 119.858C234.428 119.858 242.648 128.078 242.648 138.182V188.86H205.999V138.182C205.999 128.078 214.219 119.858 224.323 119.858Z" fill="#38B856"/>
<path d="M402.265 156.507C392.16 156.507 383.94 148.287 383.94 138.182C383.94 128.061 392.13 119.858 402.265 119.858H418.441C435.122 119.858 448.646 106.334 448.646 89.6527C448.646 72.9715 435.122 59.4476 418.441 59.4476H402.265C358.772 59.4476 323.53 94.6406 323.53 138.182C323.53 181.597 358.85 216.917 402.265 216.917C412.369 216.917 420.589 225.137 420.589 235.241C420.589 245.362 412.396 253.566 402.265 253.566H386.089C369.408 253.566 355.884 267.089 355.884 283.771C355.884 300.452 369.408 313.976 386.089 313.976H402.265C445.756 313.976 480.999 278.783 480.999 235.241C480.999 191.826 445.68 156.507 402.265 156.507Z" fill="#2E8555"/>
<path d="M256.677 803.566C246.572 803.566 238.353 795.346 238.353 785.241C238.353 775.121 246.544 766.917 256.677 766.917H272.853C289.534 766.917 303.058 753.393 303.058 736.712C303.058 720.031 289.534 706.507 272.853 706.507H256.677C213.186 706.507 177.942 741.7 177.942 785.241C177.942 828.656 213.262 863.976 256.677 863.976C266.782 863.976 275.001 872.196 275.001 882.3C275.001 892.423 266.808 900.625 256.677 900.625H240.499C223.818 900.625 210.294 914.149 210.294 930.83C210.294 947.511 223.818 961.035 240.499 961.035H256.677C300.168 961.035 335.412 925.842 335.412 882.3C335.412 838.888 300.092 803.566 256.677 803.566Z" fill="#3F3D56"/>
<path d="M517.649 193.842V283.771C517.649 300.452 531.173 313.976 547.854 313.976C564.535 313.976 578.059 300.452 578.059 283.771V193.842L623.399 103.16C630.86 88.2391 624.811 70.0959 609.891 62.6352C594.97 55.1766 576.827 61.2236 569.366 76.1429L547.854 119.169L526.34 76.1429C518.879 61.2236 500.736 55.1766 485.815 62.6352C470.894 70.0959 464.846 88.2391 472.307 103.16L517.649 193.842Z" fill="#2E8555"/>
<path d="M30.2051 313.976H94.9104C111.592 313.976 125.115 300.452 125.115 283.771C125.115 267.089 111.592 253.566 94.9104 253.566H60.4102V216.917H73.342C90.0232 216.917 103.547 203.393 103.547 186.712C103.547 170.03 90.0232 156.507 73.342 156.507H60.4102V119.858H94.9104C111.592 119.858 125.115 106.334 125.115 89.6527C125.115 72.9715 111.592 59.4476 94.9104 59.4476H30.2051C13.5238 59.4476 0 72.9715 0 89.6527V283.771C0 300.452 13.5238 313.976 30.2051 313.976Z" fill="#38B856"/>
<path d="M450.794 766.917C467.475 766.917 480.999 753.393 480.999 736.712C480.999 720.031 467.475 706.507 450.794 706.507H386.089C369.408 706.507 355.884 720.031 355.884 736.712V930.83C355.884 947.511 369.408 961.035 386.089 961.035H450.794C467.475 961.035 480.999 947.511 480.999 930.83C480.999 914.149 467.475 900.625 450.794 900.625H416.294V863.976H429.226C445.907 863.976 459.431 850.452 459.431 833.771C459.431 817.09 445.907 803.566 429.226 803.566H416.294V766.917H450.794Z" fill="#212730"/>
<path d="M127.264 382.978H30.2051C13.5238 382.978 0 396.502 0 413.183C0 429.865 13.5238 443.388 30.2051 443.388H48.5295V607.301C48.5295 623.983 62.0533 637.506 78.7346 637.506C95.4158 637.506 108.94 623.983 108.94 607.301V443.388H127.264C143.945 443.388 157.469 429.865 157.469 413.183C157.469 396.502 143.945 382.978 127.264 382.978Z" fill="#3F3D56"/>
<path d="M242.648 637.504C286.062 637.504 321.382 602.184 321.382 558.77V461.711C321.382 418.296 286.062 382.976 242.648 382.976C199.233 382.976 163.913 418.296 163.913 461.711V558.77C163.913 602.184 199.233 637.504 242.648 637.504ZM224.323 461.711C224.323 451.606 232.543 443.386 242.648 443.386C252.752 443.386 260.972 451.606 260.972 461.711V558.77C260.972 568.874 252.75 577.094 242.648 577.094C232.545 577.094 224.323 568.874 224.323 558.77V461.711Z" fill="#3F3D56"/>
<path d="M127.264 706.507C110.583 706.507 97.059 720.031 97.059 736.712V882.3C97.059 892.405 88.8372 900.625 78.7346 900.625C68.632 900.625 60.4102 892.403 60.4102 882.3V736.712C60.4102 720.031 46.8863 706.507 30.2051 706.507C13.5238 706.507 0 720.031 0 736.712V882.3C0 925.715 35.3198 961.035 78.7346 961.035C122.149 961.035 157.469 925.715 157.469 882.3V736.712C157.469 720.031 143.945 706.507 127.264 706.507Z" fill="#3F3D56"/>
<path d="M601.564 404.764C589.77 392.968 570.644 392.968 558.848 404.764C547.052 416.56 547.052 435.684 558.848 447.48L578.26 466.892C590.056 478.69 609.184 478.686 620.976 466.892C632.772 455.096 632.772 435.972 620.976 424.176L601.564 404.764Z" fill="#2496ED"/>
<path d="M795.682 404.764C783.886 392.97 764.76 392.968 752.966 404.766L733.555 424.178C721.76 435.974 721.76 455.1 733.555 466.894C745.377 478.714 764.503 478.664 776.271 466.892L795.682 447.48C807.479 435.684 807.479 416.56 795.682 404.764Z" fill="#2496ED"/>
<path d="M677.264 332.973C660.582 332.973 647.059 346.496 647.059 363.178V390.632C647.059 407.313 660.582 420.837 677.264 420.837C693.945 420.837 707.469 407.313 707.469 390.632V363.178C707.469 346.496 693.947 332.973 677.264 332.973Z" fill="#E55B77"/>
<path d="M272.853 313.976C289.534 313.976 303.058 300.452 303.058 283.771V138.182C303.058 101.078 277.25 69.9066 242.647 61.6223V283.771C242.647 300.452 256.171 313.976 272.853 313.976Z" fill="#2E8555"/>
<path d="M256.677 766.917H272.853C289.534 766.917 303.058 753.393 303.058 736.712C303.058 720.031 289.534 706.507 272.853 706.507H256.677C251.886 706.507 247.202 706.958 242.647 707.775V773.457C246.006 769.46 251.038 766.917 256.677 766.917Z" fill="#212730"/>
<path d="M335.411 882.3C335.411 838.886 300.091 803.566 256.677 803.566C251.051 803.566 246.012 801.013 242.647 797.007V862.699C247.204 863.523 251.886 863.976 256.677 863.976C266.781 863.976 275.001 872.196 275.001 882.3C275.001 892.421 266.808 900.625 256.677 900.625H242.647V961.035H256.677C300.166 961.035 335.411 925.842 335.411 882.3Z" fill="#212730"/>
<path d="M321.382 558.772V461.713C321.382 418.298 286.062 382.978 242.647 382.978V443.388C252.752 443.388 260.972 451.608 260.972 461.713V558.772C260.972 568.876 252.75 577.096 242.647 577.096V637.506C286.062 637.504 321.382 602.185 321.382 558.772Z" fill="#212730"/>
<path d="M726.516 913.276C751.258 890.027 784.6 877.692 820.133 878.627C834.555 879.005 848.587 876.276 861.007 870.088L888.988 856.146C895.871 852.717 902.176 848.331 907.737 843.105L1007.59 749.273C1018.8 738.742 1018.46 720.179 1006.84 707.81L998.085 698.49C986.462 686.122 967.954 684.633 956.747 695.163L963.67 688.658C974.878 678.126 974.542 659.563 962.92 647.195L954.162 637.875C942.54 625.506 924.032 624.016 912.824 634.548L919.974 627.829C931.182 617.298 930.847 598.733 919.224 586.364L910.466 577.043C898.842 564.674 880.335 563.186 869.127 573.718L981.945 467.706C995.485 454.982 995.079 432.556 981.038 417.613C966.997 402.671 944.639 400.872 931.099 413.596L732.329 600.375C726.575 605.782 717.222 605.46 710.753 599.631L635.218 531.589C618.246 516.299 593.708 515.456 578.612 529.642C563.571 543.776 562.832 568.204 576.904 586.091L606.618 623.856C630.904 654.723 629.629 696.88 603.671 721.271L546.741 774.767C539.914 781.182 540.119 792.489 547.198 800.023L674.985 936.013C682.064 943.547 693.336 944.454 700.164 938.039L726.516 913.276Z" fill="#FFCEC0"/>
<path d="M732.331 600.364L695.187 635.266C689.44 640.667 680.093 640.357 673.614 634.527L598.09 566.488C589.003 558.304 577.755 554.261 566.948 554.45C567.684 545.077 571.596 536.238 578.617 529.64C593.71 515.458 618.239 516.296 635.221 531.596L710.746 599.636C717.224 605.466 726.57 605.777 732.331 600.364Z" fill="#FDB0A0"/>
<path d="M869.121 573.717L850.385 591.322C848.072 593.496 848.141 597.328 850.54 599.881C851.564 600.971 852.904 601.731 854.326 601.928C861.195 602.886 867.986 606.245 873.331 611.933L882.086 621.25C890.469 630.171 892.931 642.286 889.459 652.306C888.567 654.881 889.304 657.892 891.323 660.041C892.719 661.526 894.593 662.421 896.533 662.596C903.903 663.257 911.294 666.675 917.023 672.772L925.777 682.088C933.833 690.661 936.434 702.187 933.55 711.97C932.705 714.839 933.501 718.092 935.708 720.441C937.233 722.063 939.266 723.04 941.381 723.297C948.442 724.156 955.459 727.548 960.948 733.39L969.702 742.706C981.328 755.078 981.663 773.64 970.453 784.174L1007.6 749.271C1018.81 738.738 1018.47 720.173 1006.85 707.803L998.092 698.487C986.466 686.115 967.961 684.627 956.75 695.161L963.672 688.657C974.881 678.124 974.546 659.557 962.922 647.186L954.168 637.87C942.542 625.498 924.035 624.009 912.824 634.544L919.968 627.831C931.177 617.298 930.842 598.732 919.217 586.361L910.463 577.044C898.84 564.672 880.33 563.184 869.121 573.717Z" fill="#FDB0A0"/>
<path d="M981.041 417.616C995.076 432.551 995.483 454.98 981.947 467.698L944.805 502.6C958.353 489.87 957.947 467.443 943.911 452.506C936.887 445.032 927.785 440.844 918.747 440.117C909.709 439.39 900.732 442.123 893.959 448.488L931.103 413.585C937.876 407.22 946.841 404.498 955.879 405.225C964.916 405.954 974.016 410.14 981.041 417.616Z" fill="#FDB0A0"/>
</g>
<defs>
<clipPath id="clip0_29_220">
<rect width="1031" height="1031" fill="white"/>
</clipPath>
</defs>
</svg>
